<?xml version="1.0" encoding="UTF-8"?>
<!-- Created with Inkscape (http://www.inkscape.org/) -->
<svg width="20.536mm" height="20.573mm" version="1.1" viewBox="0 0 20.536 20.573" xmlns="http://www.w3.org/2000/svg" xmlns:cc="http://creativecommons.org/ns#" xmlns:dc="http://purl.org/dc/elements/1.1/" xmlns:rdf="http://www.w3.org/1999/02/22-rdf-syntax-ns#">
 <metadata>
  <rdf:RDF>
   <cc:Work rdf:about="">
    <dc:format>image/svg+xml</dc:format>
    <dc:type rdf:resource="http://purl.org/dc/dcmitype/StillImage"/>
    <dc:title/>
   </cc:Work>
  </rdf:RDF>
 </metadata>
 <g transform="translate(-134.84 -57.821)">
  <g transform="translate(84.19 .60136)">
   <path d="m59.608 77.718c-2.549-0.3194-5.0777-1.757-6.7356-3.8291-2.0952-2.6187-2.7696-6.2465-1.7576-9.4548 0.30086-0.95377 0.97803-2.3698 1.2355-2.5834 0.23058-0.19136 1.0809-0.08548 1.3295 0.16557 0.12066 0.12182 0.70307 1.9243 1.5441 4.7789 1.5169 5.1482 1.6055 5.3449 2.6754 5.9376l0.55752 0.30886 7.0735 0.06286 0.29884-0.25706c0.26313-0.22634 0.28633-0.29265 0.1941-0.55491-0.18975-0.53955-0.347-0.56195-3.9567-0.56363-1.8313-8.41e-4 -3.4045-0.03027-3.496-0.06537-0.09147-0.0351-0.16631-0.12973-0.16631-0.21029 0-0.12126 0.44963-0.14646 2.613-0.14646 2.5359 0 2.6234-7e-3 2.9634-0.23657 0.29732-0.20077 0.55708-0.68211 1.7164-3.1806 1.108-2.3878 1.3663-3.0334 1.3675-3.4172 0.0015-0.49232-0.22816-0.96546-0.54429-1.1215-0.09773-0.04823-2.6089-0.11134-5.5803-0.14026l-5.4027-0.05257-0.22522-0.6952c-0.31297-0.96607-0.70862-1.5247-1.2748-1.7997-0.25829-0.12548-0.46961-0.26129-0.46961-0.3018 0-0.16595 1.2284-1.1796 2.0195-1.6664 1.6085-0.98987 3.3879-1.4784 5.3761-1.4761 4.7006 0.0055 8.7425 3.1168 9.9693 7.6741 0.33979 1.2622 0.34114 3.9465 0.0026 5.2046-0.64292 2.3894-2.3031 4.6797-4.3637 6.0199-1.9926 1.296-4.6039 1.8962-6.9634 1.6005zm0.53341-2.0559c0.43421-0.20605 0.72904-0.7776 0.63743-1.2357-0.08657-0.43284-0.54315-0.89386-0.96332-0.97268-0.65665-0.12319-1.4112 0.49976-1.4112 1.165 0 0.35161 0.33629 0.87761 0.66461 1.0395 0.42462 0.20941 0.63763 0.21016 1.0725 0.0038zm4.3159-0.15643c0.60118-0.56478 0.51353-1.4572-0.18496-1.883-0.41611-0.2537-0.72488-0.26818-1.1401-0.05349-0.80107 0.41425-0.81378 1.6544-0.02152 2.0999 0.38104 0.21429 1.0281 0.13578 1.3465-0.16338zm-6.6557-5.6972c-0.12387-0.15843-0.34356-0.79037-0.34356-0.98826 0-0.10554 0.18621-0.14202 0.72475-0.14202 0.78438 0 0.8524 0.05033 0.8524 0.63086 0 0.54324-0.08739 0.63086-0.62923 0.63086-0.27637 0-0.54773-0.05901-0.60435-0.13143zm2.0958-0.47314 0.03153-0.60457 0.83202-0.03102c0.91734-0.0342 1.0037 0.01508 1.0064 0.57442 0.0031 0.63603-0.04218 0.66574-1.0137 0.66574h-0.88772zm2.6714 0.43826c-0.0351-0.09147-0.06382-0.30052-0.06382-0.46454 0-0.54471 0.08684-0.63086 0.6359-0.63086 0.27954 0 0.53641 0.04554 0.57081 0.1012 0.0344 0.05566-0.05823 0.33955-0.20585 0.63086-0.22861 0.45113-0.31323 0.52966-0.57081 0.52966-0.17876 0-0.3285-0.068-0.36623-0.16632zm-5.5415-2.2257c-0.06061-0.15903-0.13632-0.41926-0.16826-0.57829l-0.05806-0.28914h1.0533c1.1272 0 1.181 0.02633 1.181 0.57829 0 0.5392-0.06846 0.57829-1.0127 0.57829-0.86872 0-0.88711-0.0053-0.99526-0.28914zm2.8491-0.28914v-0.57829h0.88247c0.94143 0 1.0101 0.03932 1.0101 0.57829s-0.06868 0.57829-1.0101 0.57829h-0.88247zm2.676 0.3325c-0.03513-0.13998-0.04836-0.39035-0.02938-0.55637l0.03449-0.30185 0.98944-0.03045c0.54419-0.01675 1.0348 0.01492 1.0903 0.07038 0.06435 0.06435 0.01009 0.26558-0.14996 0.55617l-0.2508 0.45534-0.81009 0.03065c-0.78061 0.02954-0.81241 0.02139-0.87397-0.22387zm-6.0956-2.0037c-0.09072-0.13846-0.19286-0.42376-0.22698-0.63401l-0.06204-0.38227 2.8148 0.05888 0.03271 0.45463c0.05011 0.69648-0.05026 0.75452-1.3049 0.75452-1.0324 0-1.0972-0.01301-1.2536-0.25174zm3.4896 0.18164c-0.03855-0.03855-0.0701-0.32244-0.0701-0.63086v-0.56076h0.88247c0.7077 0 0.89511 0.03294 0.94629 0.16632 0.10706 0.279 0.07125 0.83563-0.06235 0.96923-0.13309 0.13309-1.5717 0.18065-1.6963 0.05608zm2.6847-0.05608c-0.06939-0.06939-0.12617-0.27844-0.12617-0.46454 0-0.67736-0.01499-0.671 1.5822-0.671 0.82184 0 1.4818 0.04417 1.5173 0.10154 0.07056 0.11417-0.33022 0.96045-0.51132 1.0797-0.20239 0.13328-2.3224 0.09392-2.462-0.0457z" fill="#ff9800" stroke-width=".10514"/>
  </g>
 </g>
</svg>
